<svg id="Layer_1" height="512" viewBox="0 0 512 512" width="512" xmlns="http://www.w3.org/2000/svg" data-name="Layer 1"><path d="m349.55 338.893-187.22.36-.62-.115a43.694 43.694 0 0 0 -30.71 41.715v95.147h250v-95.147a43.728 43.728 0 0 0 -31.45-41.96z" fill="#bc5e51"/><path d="m228.37 93.953v2.72a13.392 13.392 0 0 1 -13.39 13.4 13.384 13.384 0 0 0 -13.4 13.39v1.34a20.391 20.391 0 0 1 -20.39 20.39h-.01v-26.58a24.659 24.659 0 0 1 24.66-24.66z" fill="#c2684f"/><path d="m224.62 93.943v.01h-18.78a24.659 24.659 0 0 0 -24.66 24.66v55.687h-1.74a18.663 18.663 0 0 1 -18.67-18.66v-59.1a31.466 31.466 0 0 1 31.46-31.46h9.35a40.47 40.47 0 0 0 -1.72 11.75s8.42 17.113 24.76 17.113z" fill="#ad554d"/><path d="m321.63 72.473-2.1 1.07c-1.25-.41-2.53-.77-3.83-1.07l-44.98-10.48c-19.18-3.92-37.14.58-37.14 20.16v10.16a26.677 26.677 0 0 1 -8.96 1.63c-16.34 0-24.76-17.11-24.76-17.11a40.538 40.538 0 0 1 48.72-39.77l52.97 10.81a25.106 25.106 0 0 1 20.08 24.6z" fill="#c2684f"/><path d="m351.02 146.113v22.387h-1.04a29.785 29.785 0 0 1 -19.06-6.9 27.448 27.448 0 0 1 -2.04-1.85 38.363 38.363 0 0 1 -11.24-27.14v-23.31a27.149 27.149 0 0 0 -27.15-27.15h-2.6a27.041 27.041 0 0 0 -18.25 7.05c-9.78 8.89-24.09 10.6-35.3 3.59l-.76-.48v-10.157c0-19.58 17.96-24.08 37.14-20.16l44.98 10.48c1.3.3 2.58.66 3.83 1.07a45.946 45.946 0 0 1 31.7 43.68v28.89z" fill="#ad554d"/><path d="m352.94 189.263a14.694 14.694 0 0 1 -22 14.73h-.15v-23.16h.15a12.436 12.436 0 0 1 15.81-1.6 14.622 14.622 0 0 1 6.19 10.03z" fill="#e0b9b3"/><path d="m181.18 180.833v23.16h-.28a14.7 14.7 0 0 1 -15.81-24.76 12.436 12.436 0 0 1 15.81 1.6z" fill="#e0b9b3"/><path d="m290.78 287.383a47.067 47.067 0 0 1 14.43 2.26 81.7 81.7 0 0 1 9.04 12.88 75.5 75.5 0 0 1 9.12 27.3 32.819 32.819 0 0 1 -8.1-1.06 33.257 33.257 0 0 1 -24.93-32.2v-9.18z" fill="#bc5e51"/><path d="m221.66 287.383v10.9a31.531 31.531 0 0 1 -24.53 30.75c-1.93-1.28-3.82-2.62-5.68-4.04l-.55-.42-1.37-.15a76.406 76.406 0 0 1 8.22-21.9 82.255 82.255 0 0 1 8.86-12.67 46.874 46.874 0 0 1 15.05-2.47z" fill="#bc5e51"/><path d="m191.45 324.993c1.86 1.42 3.75 2.76 5.68 4.04a106.44 106.44 0 0 0 118.14-.27 32.819 32.819 0 0 0 8.1 1.06 84.7 84.7 0 0 1 -.65 25.02l-1.62-.27a106.473 106.473 0 0 1 -129.65.42l-.55-.42-1.62.27a82.41 82.41 0 0 1 .25-30.42l1.37.15z" fill="#4e6cca"/><path d="m293.99 439.2-13.22 36v.58h-49.54v-.58l-13.22-36a106.571 106.571 0 0 0 75.98 0z" fill="#cae6ee"/><path d="m290.34 296.563v-19.43l-.25-.5-68.18.02-.25.48v21.15a31.531 31.531 0 0 1 -24.53 30.75 106.44 106.44 0 0 0 118.14-.27 33.257 33.257 0 0 1 -24.93-32.2z" fill="#e0b9b3"/><path d="m191.45 354.993a106.473 106.473 0 0 0 129.65-.42l1.62.27a129.107 129.107 0 0 1 -6.21 23.04l-7.4 20.14a106.509 106.509 0 0 1 -106.22 0l-7.4-20.14a128.268 128.268 0 0 1 -6.21-23.04l1.62-.27z" fill="#cae6ee"/><path d="m309.11 398.023-15.12 41.177a106.571 106.571 0 0 1 -75.98 0l-15.12-41.18a106.509 106.509 0 0 0 106.22.003z" fill="#4e6cca"/><path d="m358.25 359h-25.09l13.25-7.008a8.514 8.514 0 0 0 4.53-7.54 8.656 8.656 0 0 0 -.38-2.549c-.31-.98-.64-2-1.01-2.985-4.71-12.99-13.82-26.8-27.09-39.173a45.676 45.676 0 0 0 -17.25-10.1 81.679 81.679 0 0 1 9.04 12.877 75.489 75.489 0 0 1 9.12 27.3 84.7 84.7 0 0 1 -.65 25.019 130.154 130.154 0 0 1 -6.21 23.148l-35.74 98.011h28.23v-.8l52-111.892a2.955 2.955 0 0 0 -2.75-4.308z" fill="#7f3d32"/><path d="m328.88 159.753a38.363 38.363 0 0 1 -11.24-27.14v-23.313a27.149 27.149 0 0 0 -27.15-27.15h-2.6a27.041 27.041 0 0 0 -18.25 7.05c-9.78 8.89-24.09 10.6-35.3 3.59l-.76-.48a26.677 26.677 0 0 1 -8.96 1.63v.01h3.75v2.72a13.392 13.392 0 0 1 -13.39 13.4 13.384 13.384 0 0 0 -13.4 13.39v1.34a20.391 20.391 0 0 1 -20.39 20.39h-.01v64.85a74.749 74.749 0 0 0 74.78 74.8h.52a74.765 74.765 0 0 0 74.31-74.8v-48.29l.13-.15a27.448 27.448 0 0 1 -2.04-1.847z" fill="#f5cac1"/><path d="m191.533 339.2-29.2.056-.62-.115a43.694 43.694 0 0 0 -30.713 41.712v95.147h30v-95.147a43.69 43.69 0 0 1 30.533-41.653z" fill="#994f47"/><path d="m251.91 276.653a74.792 74.792 0 0 1 -40.73-66.61v-99.415a13.357 13.357 0 0 0 -9.6 12.835v1.34a20.391 20.391 0 0 1 -20.39 20.39h-.01v64.85a74.749 74.749 0 0 0 74.78 74.8h.52a75.148 75.148 0 0 0 14.5-1.51 74.171 74.171 0 0 1 -19.07-6.68z" fill="#ceada7"/><path d="m189.222 354.843a82.4 82.4 0 0 1 .279-30.42 76.452 76.452 0 0 1 8.235-21.9 82.3 82.3 0 0 1 8.867-12.67 46.15 46.15 0 0 0 -16.307 9.58 115.8 115.8 0 0 0 -18.278 20.94 86.044 86.044 0 0 0 -9.689 18.83c-.31.89-.609 1.77-.889 2.65a8.624 8.624 0 0 0 4.15 10.139l13.25 7.008h-25.09a2.955 2.955 0 0 0 -2.745 4.311l51.995 111.889v.8h28l-35.625-98.117a128.035 128.035 0 0 1 -6.153-23.04z" fill="#7f3d32"/><g fill="#20344c"><path d="m354.13 334.081c-5.488-13.549-15.107-27.11-27.575-38.742a51.971 51.971 0 0 0 -30.219-13.662v-1.716a80.976 80.976 0 0 0 40.407-68.011c.537.042 1.075.071 1.615.071a20.714 20.714 0 0 0 20.524-23.621 20.54 20.54 0 0 0 -8.452-13.9h.593a6 6 0 0 0 6-6l.2-22.387v-28.89a51.7 51.7 0 0 0 -29.681-46.956 31.22 31.22 0 0 0 -24.8-28.27l-52.966-10.821a46.64 46.64 0 0 0 -52.423 27.906h-5.121a37.5 37.5 0 0 0 -37.459 37.459v59.1a24.6 24.6 0 0 0 7.876 18.046c-.326.2-.654.389-.97.608a20.552 20.552 0 0 0 -8.718 14.1 20.714 20.714 0 0 0 20.523 23.625c.583 0 1.164-.034 1.745-.084a80.2 80.2 0 0 0 23.81 55.428 81.3 81.3 0 0 0 16.625 12.718v1.649a52.322 52.322 0 0 0 -29.4 13.257c-13.114 11.921-22.833 25.323-28.4 39.081a49.46 49.46 0 0 0 -32.864 46.779v94.932a6 6 0 0 0 6 6h250a6 6 0 0 0 6-6v-94.932a49.975 49.975 0 0 0 -32.87-46.767zm-9.3 9.567a2.351 2.351 0 0 1 -1.17 2.8l-13.246 6.813a5.979 5.979 0 0 0 -1.522 1.129 90.641 90.641 0 0 0 .649-23.821 6.17 6.17 0 0 0 .052-.749 5.971 5.971 0 0 0 -.435-2.234 79.239 79.239 0 0 0 -4.592-17.228c9.641 10.455 16.734 22.042 20.267 33.29zm-43.091-48.792a73.051 73.051 0 0 1 7.265 10.586 71.147 71.147 0 0 1 6.516 15.794c-.423.312-.84.634-1.267.938a27.3 27.3 0 0 1 -17.92-25.61v-2.809a40.9 40.9 0 0 1 5.409 1.101zm39.949-95.492a8.818 8.818 0 0 1 -4.9.5v-15.955a6.362 6.362 0 0 1 6.547.251 8.7 8.7 0 0 1 -1.648 15.2zm3.537-82.147v8.372a23.609 23.609 0 0 0 -11.96-3.236 6 6 0 1 0 0 12 11.768 11.768 0 0 1 11.755 11.754v15.873a23.691 23.691 0 0 1 -11.9-6.47 32.174 32.174 0 0 1 -9.484-22.9v-23.316a33.187 33.187 0 0 0 -33.15-33.149h-2.592a33.068 33.068 0 0 0 -22.29 8.612 23.281 23.281 0 0 1 -26.021 4.089v-6.7c0-5.184 1.5-8.928 4.585-11.448 4.974-4.059 14.183-5.094 25.274-2.844l44.9 10.457a39.782 39.782 0 0 1 30.886 38.906zm-126.651-67.186a34.464 34.464 0 0 1 28.8-7.1l52.976 10.818a19.178 19.178 0 0 1 14.15 12.278l-42.421-9.88c-.054-.013-.107-.025-.161-.036-14.891-3.041-27.441-1.161-35.344 5.291-4.1 3.351-9 9.669-9 20.743v5.543c-12.206 1.922-19.475-8.5-21.7-12.32a34.457 34.457 0 0 1 12.7-25.337zm-48.422 149.333a8.7 8.7 0 0 1 -1.648-15.2 6.371 6.371 0 0 1 6.676-.177v15.852a8.791 8.791 0 0 1 -5.028-.475zm5.024-80.753v48.936a12.672 12.672 0 0 1 -8.406-11.91v-59.1a25.487 25.487 0 0 1 25.459-25.459h1.988a46.9 46.9 0 0 0 -.364 5.751 5.984 5.984 0 0 0 .618 2.65 39.985 39.985 0 0 0 6.159 8.913 30.709 30.709 0 0 0 -25.454 30.219zm12 0a18.688 18.688 0 0 1 18.667-18.667h15.757a7.4 7.4 0 0 1 -6.62 4.12 19.419 19.419 0 0 0 -19.4 19.4v1.334a14.4 14.4 0 0 1 -8.4 13.07zm20.324 140.241a68.332 68.332 0 0 1 -20.314-48.81v-35.737-.013-23.8a26.432 26.432 0 0 0 20.4-25.7v-1.332a7.406 7.406 0 0 1 7.4-7.4 19.413 19.413 0 0 0 19.1-16.145 5.789 5.789 0 0 0 .662-.089c12.768 6.061 27.963 3.777 38.934-6.192a21.1 21.1 0 0 1 14.22-5.493h2.592a21.173 21.173 0 0 1 21.15 21.149v23.317a44.1 44.1 0 0 0 13 31.384c.051.051.105.1.157.15v45.893a68.978 68.978 0 0 1 -68.351 68.8h-.466a68.327 68.327 0 0 1 -48.484-19.982zm20.168 39.43v-12.538a80.733 80.733 0 0 0 28.308 5.1h.549a80.112 80.112 0 0 0 27.815-5.169v10.891a39.247 39.247 0 0 0 17.92 32.926 100.733 100.733 0 0 1 -91.835.347 37.533 37.533 0 0 0 17.239-31.557zm-24.671 7.161a73.029 73.029 0 0 1 7.117-10.4 40.782 40.782 0 0 1 5.554-1.214v4.458a25.58 25.58 0 0 1 -17.45 24.22c-.584-.411-1.159-.842-1.736-1.267a71.109 71.109 0 0 1 6.511-15.797zm-8.86 30.163c.593-.064 1.182-.138 1.765-.229a112.637 112.637 0 0 0 120.545-.22c.468.087.937.171 1.411.241a79.986 79.986 0 0 1 -.488 14.475 100.612 100.612 0 0 1 -122.278.348l-.453-.346a80.131 80.131 0 0 1 -.506-14.269zm13.611 58.243-6.619-18.024q-1.684-4.633-2.963-9.069a112.6 112.6 0 0 0 115.674.008q-1.283 4.429-2.954 9.043l-6.627 18.044a100.676 100.676 0 0 1 -96.515-.002zm90.61 16.071-9.03 24.58a100.26 100.26 0 0 1 -66.656 0l-9.025-24.574a112.778 112.778 0 0 0 84.707 0zm-131.192-66.271c3.467-11.032 10.465-22.4 20.043-32.725-5.154 13.5-6.512 27.776-4.1 43.47a5.979 5.979 0 0 0 -1.524-1.131l-13.246-6.813a2.352 2.352 0 0 1 -1.173-2.801zm-30.166 126.131v-88.932a37.512 37.512 0 0 1 18.609-32.537 14.351 14.351 0 0 0 2.041 4.288h-3.9a9.15 9.15 0 0 0 -8.285 13.035l48.22 104.146zm69.909 0-48.7-105.18h20.63a6 6 0 0 0 5.491-3.587 143.717 143.717 0 0 0 5.525 18.931l32.994 89.837zm69.46 0h-40.738l-7.766-21.144a112.164 112.164 0 0 0 56.27 0zm12.782 0 33-89.855a143.673 143.673 0 0 0 5.519-18.911 6 6 0 0 0 5.49 3.585h20.63l-48.7 105.181zm85.849 0h-56.686l6.52-14.083h20.395a6 6 0 0 0 0-12h-14.838l36.109-77.988a9.151 9.151 0 0 0 -8.25-13.11h-3.9a14.357 14.357 0 0 0 2.033-4.264 37.945 37.945 0 0 1 18.617 32.513z"/><path d="m277.5 182.439a6 6 0 0 0 6-6 6.9 6.9 0 1 1 13.805 0 6 6 0 1 0 12 0 18.9 18.9 0 1 0 -37.805 0 6 6 0 0 0 6 6z"/><path d="m221.594 157.536a18.925 18.925 0 0 0 -18.9 18.9 6 6 0 0 0 12 0 6.9 6.9 0 1 1 13.805 0 6 6 0 0 0 12 0 18.924 18.924 0 0 0 -18.905-18.9z"/><path d="m269.7 247.016a6 6 0 1 0 -4.51-11.121 24.381 24.381 0 0 1 -18.017.145 6 6 0 1 0 -4.328 11.191 36.333 36.333 0 0 0 26.855-.215z"/></g></svg>